<?xml version="1.0" encoding="UTF-8" standalone="no"?>
<!-- Created with Inkscape (http://www.inkscape.org/) -->

<svg
   version="1.1"
   id="svg2"
   width="1587.4"
   height="1122.52"
   viewBox="0 0 1587.4 1122.52"
   sodipodi:docname="lupo_vettoriale.ai"
   xmlns:inkscape="http://www.inkscape.org/namespaces/inkscape"
   xmlns:sodipodi="http://sodipodi.sourceforge.net/DTD/sodipodi-0.dtd"
   xmlns="http://www.w3.org/2000/svg"
   xmlns:svg="http://www.w3.org/2000/svg">
  <defs
     id="defs6">
    <clipPath
       clipPathUnits="userSpaceOnUse"
       id="clipPath18">
      <path
         d="M 0,841.89 H 1190.55 V 0 H 0 Z"
         id="path16" />
    </clipPath>
  </defs>
  <sodipodi:namedview
     id="namedview4"
     pagecolor="#ffffff"
     bordercolor="#000000"
     borderopacity="0.25"
     inkscape:showpageshadow="2"
     inkscape:pageopacity="0.0"
     inkscape:pagecheckerboard="0"
     inkscape:deskcolor="#d1d1d1" />
  <g
     id="g8"
     inkscape:groupmode="layer"
     inkscape:label="lupo_vettoriale"
     transform="matrix(1.3333333,0,0,-1.3333333,0,1122.52)">
    <path
       d="M 0,0 H 595.275 V 841.89 H 0 Z"
       style="fill:#1d1d1b;fill-opacity:1;fill-rule:nonzero;stroke:none"
       id="path10" />
    <g
       id="g12">
      <g
         id="g14"
         clip-path="url(#clipPath18)">
        <g
           id="g20"
           transform="translate(131.2944,447.1514)">
          <path
             d="m 0,0 c 0,0 -7.753,56.129 23.771,104.569 0,0 26.719,46.902 80.733,68.046 0,0 57.283,26.527 124.56,0 0,0 33.639,-13.647 54.783,-36.329 0,0 33.831,-30.949 45.364,-80.67 0,0 6.344,-21.593 3.653,-55.231 0,0 -0.865,-4.133 -1.442,-5.574 0,0 -1.25,-2.211 -3.844,-4.326 0,0 -0.961,-0.288 -1.442,0.481 0,0 -1.634,3.556 -2.307,4.036 0,0 -0.865,0.097 -1.634,-0.576 l -2.643,-2.787 c 0,0 -0.384,-0.193 -0.624,0.048 l -2.163,4.037 c 0,0 -0.144,0.48 -0.721,0.047 l -2.883,-2.883 c 0,0 -0.529,-0.529 -1.202,0.24 0,0 -1.345,2.98 -2.018,3.749 0,0 -1.009,0.528 -1.633,0.048 l -2.98,-1.874 c 0,0 -0.817,-0.193 -1.009,0.384 l -0.721,2.403 c 0,0 -0.241,0.673 -0.817,-0.096 l -2.451,-2.211 c 0,0 -0.336,-0.144 -0.721,0.337 l -0.432,1.537 -0.625,2.163 c 0,0 -0.721,0.288 -0.865,0.624 0,0 -0.144,1.49 0.289,3.797 0,0 0.608,6.84 0.672,9.595 0,0 0.192,9.291 -0.576,16.082 0,0 -1.346,17.813 -7.305,32.806 0,0 -6.536,22.875 -28.641,46.326 l -0.801,0.769 c 0,0 -0.193,0.384 -0.577,0.032 -0.385,-0.352 -10.668,-10.38 -10.668,-10.38 0,0 -0.289,-0.288 0.128,-0.673 0.416,-0.384 7.337,-8.201 13.584,-16.979 0,0 15.25,-19.863 18.709,-51.58 0,0 2.115,-21.337 -2.498,-39.021 0,0 -0.641,-1.41 -1.538,-0.769 0,0 -3.204,2.883 -3.588,3.075 0,0 -0.577,0.642 -0.961,-0.064 0,0 -0.961,-1.217 -1.602,-1.729 0,0 -0.32,-0.45 -1.089,0.063 l -2.691,2.691 c 0,0 -0.769,0.705 -1.346,-0.128 l -1.922,-1.73 c 0,0 -0.321,-0.577 -1.09,-0.064 l -2.499,2.755 c 0,0 -0.384,0.385 -1.025,0.064 l -2.691,-2.114 c 0,0 -0.961,-0.32 -1.409,0.384 l -2.114,2.82 c 0,0 -0.257,0.448 -1.411,0.448 l -3.203,-1.281 c 0,0 -0.769,-0.513 -1.025,0.192 l -2.115,3.46 c 0,0 -0.384,0.385 -1.281,-0.064 -0.257,-0.192 -3.588,-1.346 -3.588,-1.346 0,0 -1.281,-0.64 -1.346,0.321 l 0.577,2.947 c 0,0 6.279,22.426 -2.179,46.005 0,0 -10.636,31.781 -43.826,44.852 0,0 -9.996,4.357 -27.937,5.382 0,0 -25.757,0.385 -43.954,-13.583 0,0 -17.556,-9.867 -28.065,-35.369 0,0 -2.69,-7.176 -3.844,-13.199 0,0 -2.306,-11.919 -0.897,-23.58 0,0 1.025,-8.073 2.051,-12.174 0,0 0.224,-2.018 0.032,-3.075 0,0 -0.257,-0.961 -1.538,-0.673 l -2.371,1.282 c 0,0 -0.512,0.32 -0.641,-0.513 0,0 -0.288,-1.858 -0.928,-2.915 0,0 -0.481,-0.833 -1.122,-0.065 0,0 -2.05,1.475 -2.979,2.532 0,0 -0.545,0.64 -0.833,-0.096 0,0 -0.929,-2.788 -1.698,-3.524 0,0 -0.256,-0.193 -0.673,0.159 l -2.851,2.371 c 0,0 -0.865,0.64 -1.122,0.032 0,0 -0.928,-2.659 -1.441,-3.235 0,0 -0.993,-0.417 -1.602,0.192 l -2.563,2.466 c 0,0 -1.29,1.795 -1.554,2.756 0,0 -1.298,8.713 -1.554,14.768 0,0 -0.385,10.092 0.32,16.051 0,0 0.705,10.573 4.678,22.235 0,0 2.691,8.265 5.382,12.686 l 0.256,0.641 c 0,0 0.321,0.416 -0.096,0.672 l -0.48,0.481 c 0,0 -0.128,0.224 -0.513,-0.161 0,0 -6.407,-6.247 -12.174,-21.913 0,0 -3.908,-9.771 -5.382,-13.487 -1.474,-3.717 -4.742,-12.239 -5.447,-14.481 0,0 -0.448,-1.345 -1.024,-2.563 -0.577,-1.217 -3.204,-1.986 -4.55,-2.178 0,0 -0.897,0.128 -0.64,1.794 l 1.409,11.02 c 0,0 -0.272,0.385 -0.609,0.433 0,0 -0.816,0.288 -0.961,-0.096 l -0.16,-1.81 c 0,0 -0.064,-0.578 -0.448,-0.898 l -1.026,-0.576 c 0,0 -0.256,-0.192 -0.256,-0.833 l 0.385,-1.922 c 0,0 0.32,-0.769 -0.064,-1.154 l -1.154,-0.705 c 0,0 -1.281,-0.64 -0.576,-2.37 l 0.64,-1.602 c 0,0 0.064,-0.769 -0.448,-1.089 L 42.545,9.804 c 0,0 -0.705,0.32 -0.384,-0.513 l 1.025,-2.435 c 0,0 0.128,-1.089 -0.449,-1.345 L 40.815,5.447 c 0,0 -0.192,-0.193 0.064,-0.705 l 0.577,-2.755 c 0,0 0,-0.898 -0.769,-1.41 l -1.41,-0.449 c 0,0 -0.833,-0.384 -0.448,-1.473 l 0.897,-1.987 c 0,0 0.32,-0.961 -0.769,-1.473 l -0.833,-0.128 c 0,0 -1.538,-0.769 -1.794,-2.115 -0.257,-1.345 -0.641,-3.332 -3.781,-3.396 0,0 -1.665,0.256 -1.986,0.641 l -1.922,0.192 c 0,0 -2.307,0.77 -1.666,3.716 0,0 0.385,3.396 2.05,6.28 l 0.385,0.833 c 0,0 -0.321,6.215 -0.257,7.432 0,0 0.321,17.236 1.218,23.452 0,0 -2.691,2.498 -3.46,3.78 0,0 -0.897,1.217 -0.385,1.729 0,0 1.859,1.09 5.383,0.962 0,0 1.089,7.048 1.666,9.162 l 0.128,0.962 c 0,0 0.064,0.576 -0.192,0.704 l -3.525,4.742 c 0,0 -0.512,0.641 0.385,1.281 0,0 2.307,1.025 4.229,1.282 0,0 0.577,2.37 0.833,4.357 0,0 1.794,18.004 2.691,26.27 0,0 0.513,2.307 -0.577,0 0,0 -10.316,-17.268 -15.89,-41.584 0,0 -2.115,-9.291 -3.204,-24.156 0,0 -0.192,-6.279 0.064,-16.916 0,0 0.192,-1.153 0,-2.691 l -0.833,-2.37 c 0,0 -0.576,-0.577 -1.281,-0.064 L 14.48,1.986 c 0,0 -0.769,1.153 -1.217,0.321 l -1.602,-2.691 c 0,0 -0.448,-1.154 -1.153,-0.257 L 9.034,1.602 c 0,0 -0.384,0.769 -1.025,-0.128 L 6.151,-0.448 c 0,0 -0.641,-0.448 -1.281,0.384 L 3.332,2.179 c 0,0 -0.385,0.897 -0.705,0.576 0,0 -1.153,-1.281 -1.794,-2.499 C 0.833,0.256 0.641,-0.128 0,0"
             style="fill:#ffffff;fill-opacity:1;fill-rule:nonzero;stroke:none"
             id="path22" />
        </g>
        <g
           id="g24"
           transform="translate(175.5693,494.9507)">
          <path
             d="m 0,0 c 0,-0.902 -0.731,-1.634 -1.634,-1.634 -0.902,0 -1.634,0.732 -1.634,1.634 0,0.902 0.732,1.634 1.634,1.634 C -0.731,1.634 0,0.902 0,0"
             style="fill:#1d1d1b;fill-opacity:1;fill-rule:nonzero;stroke:none"
             id="path26" />
        </g>
        <g
           id="g28"
           transform="translate(175.5693,494.9507)">
          <path
             d="m 0,0 c 0,-0.902 -0.731,-1.634 -1.634,-1.634 -0.902,0 -1.634,0.732 -1.634,1.634 0,0.902 0.732,1.634 1.634,1.634 C -0.731,1.634 0,0.902 0,0 Z"
             style="fill:none;stroke:#1d1d1b;stroke-width:1;stroke-linecap:butt;stroke-linejoin:miter;stroke-miterlimit:10;stroke-dasharray:none;stroke-opacity:1"
             id="path30" />
        </g>
        <g
           id="g32"
           transform="translate(170.6357,479.8613)">
          <path
             d="m 0,0 c 0,-0.902 -0.731,-1.634 -1.634,-1.634 -0.902,0 -1.634,0.732 -1.634,1.634 0,0.902 0.732,1.634 1.634,1.634 C -0.731,1.634 0,0.902 0,0"
             style="fill:#1d1d1b;fill-opacity:1;fill-rule:nonzero;stroke:none"
             id="path34" />
        </g>
        <g
           id="g36"
           transform="translate(170.6357,479.8613)">
          <path
             d="m 0,0 c 0,-0.902 -0.731,-1.634 -1.634,-1.634 -0.902,0 -1.634,0.732 -1.634,1.634 0,0.902 0.732,1.634 1.634,1.634 C -0.731,1.634 0,0.902 0,0 Z"
             style="fill:none;stroke:#1d1d1b;stroke-width:1;stroke-linecap:butt;stroke-linejoin:miter;stroke-miterlimit:10;stroke-dasharray:none;stroke-opacity:1"
             id="path38" />
        </g>
        <g
           id="g40"
           transform="translate(724.4648,447.1519)">
          <path
             d="m 0,0 c 0,0 -7.754,56.129 23.771,104.569 0,0 26.719,46.902 80.733,68.046 0,0 57.282,26.527 124.559,0 0,0 33.639,-13.647 54.784,-36.329 0,0 33.831,-30.949 45.364,-80.67 0,0 6.344,-21.593 3.652,-55.231 0,0 -0.865,-4.133 -1.441,-5.574 0,0 -1.25,-2.211 -3.845,-4.326 0,0 -0.961,-0.288 -1.442,0.481 0,0 -1.633,3.556 -2.307,4.037 0,0 -0.864,0.096 -1.633,-0.577 l -2.643,-2.787 c 0,0 -0.384,-0.193 -0.624,0.048 l -2.163,4.037 c 0,0 -0.144,0.48 -0.721,0.047 l -2.884,-2.883 c 0,0 -0.528,-0.529 -1.201,0.24 0,0 -1.346,2.98 -2.018,3.749 0,0 -1.009,0.528 -1.634,0.048 l -2.979,-1.874 c 0,0 -0.818,-0.193 -1.01,0.384 l -0.72,2.403 c 0,0 -0.241,0.673 -0.817,-0.097 l -2.451,-2.21 c 0,0 -0.337,-0.143 -0.721,0.337 l -0.433,1.537 -0.624,2.162 c 0,0 -0.722,0.289 -0.865,0.625 0,0 -0.144,1.491 0.288,3.797 0,0 0.609,6.84 0.673,9.595 0,0 0.192,9.29 -0.577,16.082 0,0 -1.345,17.813 -7.304,32.806 0,0 -6.537,22.875 -28.642,46.326 l -0.801,0.769 c 0,0 -0.192,0.384 -0.576,0.032 -0.385,-0.352 -10.669,-10.38 -10.669,-10.38 0,0 -0.288,-0.288 0.128,-0.673 0.416,-0.385 7.338,-8.201 13.584,-16.979 0,0 15.25,-19.863 18.71,-51.58 0,0 2.114,-21.337 -2.499,-39.021 0,0 -0.641,-1.41 -1.537,-0.77 0,0 -3.204,2.884 -3.588,3.076 0,0 -0.577,0.641 -0.961,-0.064 0,0 -0.962,-1.217 -1.603,-1.729 0,0 -0.32,-0.45 -1.088,0.063 l -2.692,2.691 c 0,0 -0.769,0.705 -1.345,-0.128 l -1.922,-1.729 c 0,0 -0.321,-0.578 -1.09,-0.064 l -2.499,2.754 c 0,0 -0.384,0.385 -1.025,0.064 l -2.691,-2.113 c 0,0 -0.961,-0.321 -1.41,0.383 l -2.113,2.82 c 0,0 -0.258,0.449 -1.411,0.449 l -3.204,-1.282 c 0,0 -0.768,-0.513 -1.024,0.192 l -2.115,3.46 c 0,0 -0.385,0.385 -1.282,-0.063 -0.256,-0.194 -3.588,-1.346 -3.588,-1.346 0,0 -1.281,-0.641 -1.345,0.32 l 0.576,2.947 c 0,0 6.279,22.426 -2.178,46.005 0,0 -10.637,31.781 -43.826,44.852 0,0 -9.996,4.356 -27.937,5.382 0,0 -25.758,0.385 -43.955,-13.583 0,0 -17.555,-9.867 -28.064,-35.369 0,0 -2.69,-7.176 -3.845,-13.199 0,0 -2.306,-11.919 -0.896,-23.58 0,0 1.025,-8.073 2.051,-12.174 0,0 0.224,-2.018 0.031,-3.076 0,0 -0.256,-0.961 -1.537,-0.672 l -2.371,1.282 c 0,0 -0.512,0.32 -0.641,-0.513 0,0 -0.288,-1.858 -0.929,-2.915 0,0 -0.481,-0.833 -1.122,-0.065 0,0 -2.05,1.475 -2.978,2.532 0,0 -0.545,0.64 -0.834,-0.096 0,0 -0.928,-2.787 -1.698,-3.524 0,0 -0.255,-0.193 -0.672,0.159 l -2.851,2.371 c 0,0 -0.865,0.64 -1.122,0.032 0,0 -0.929,-2.659 -1.442,-3.235 0,0 -0.993,-0.416 -1.602,0.192 l -2.563,2.466 c 0,0 -1.289,1.795 -1.554,2.756 0,0 -1.297,8.713 -1.553,14.768 0,0 -0.385,10.092 0.32,16.051 0,0 0.704,10.573 4.677,22.235 0,0 2.692,8.264 5.382,12.686 l 0.257,0.641 c 0,0 0.32,0.416 -0.097,0.672 l -0.48,0.481 c 0,0 -0.127,0.224 -0.512,-0.161 0,0 -6.408,-6.246 -12.174,-21.912 0,0 -3.908,-9.772 -5.383,-13.489 -1.473,-3.716 -4.742,-12.238 -5.446,-14.48 0,0 -0.448,-1.346 -1.024,-2.563 -0.578,-1.217 -3.205,-1.986 -4.55,-2.178 0,0 -0.898,0.128 -0.641,1.794 l 1.409,11.02 c 0,0 -0.271,0.384 -0.608,0.433 0,0 -0.817,0.288 -0.962,-0.096 l -0.159,-1.81 c 0,0 -0.065,-0.578 -0.448,-0.898 l -1.026,-0.576 c 0,0 -0.256,-0.192 -0.256,-0.833 l 0.384,-1.922 c 0,0 0.32,-0.769 -0.063,-1.154 l -1.155,-0.705 c 0,0 -1.281,-0.64 -0.576,-2.369 l 0.641,-1.603 c 0,0 0.064,-0.769 -0.449,-1.089 L 42.545,9.804 c 0,0 -0.705,0.32 -0.385,-0.513 l 1.026,-2.435 c 0,0 0.127,-1.089 -0.45,-1.345 L 40.814,5.446 c 0,0 -0.192,-0.192 0.065,-0.705 l 0.576,-2.754 c 0,0 0,-0.898 -0.769,-1.41 L 39.277,0.128 c 0,0 -0.834,-0.384 -0.449,-1.473 l 0.897,-1.986 c 0,0 0.32,-0.962 -0.769,-1.475 l -0.833,-0.127 c 0,0 -1.537,-0.769 -1.793,-2.115 -0.258,-1.346 -0.642,-3.332 -3.781,-3.396 0,0 -1.666,0.256 -1.986,0.641 l -1.922,0.193 c 0,0 -2.307,0.769 -1.666,3.715 0,0 0.384,3.396 2.05,6.28 l 0.384,0.833 c 0,0 -0.32,6.215 -0.257,7.432 0,0 0.322,17.236 1.219,23.452 0,0 -2.691,2.498 -3.461,3.78 0,0 -0.896,1.217 -0.385,1.729 0,0 1.86,1.089 5.383,0.962 0,0 1.09,7.048 1.666,9.162 l 0.128,0.961 c 0,0 0.064,0.577 -0.192,0.705 l -3.524,4.742 c 0,0 -0.512,0.641 0.385,1.282 0,0 2.307,1.024 4.229,1.281 0,0 0.576,2.37 0.832,4.357 0,0 1.795,18.004 2.691,26.27 0,0 0.514,2.307 -0.576,0 0,0 -10.317,-17.268 -15.891,-41.584 0,0 -2.115,-9.291 -3.203,-24.156 0,0 -0.192,-6.28 0.064,-16.916 0,0 0.192,-1.153 0,-2.691 l -0.833,-2.37 c 0,0 -0.577,-0.577 -1.282,-0.064 L 14.48,1.986 c 0,0 -0.769,1.154 -1.217,0.321 L 11.66,-0.384 c 0,0 -0.447,-1.154 -1.152,-0.257 L 9.033,1.603 c 0,0 -0.384,0.768 -1.024,-0.129 L 6.15,-0.448 c 0,0 -0.64,-0.448 -1.281,0.385 L 3.331,2.179 c 0,0 -0.384,0.896 -0.704,0.576 0,0 -1.154,-1.281 -1.795,-2.498 C 0.832,0.257 0.641,-0.128 0,0"
             style="fill:#1d1d1b;fill-opacity:1;fill-rule:nonzero;stroke:none"
             id="path42" />
        </g>
        <g
           id="g44"
           transform="translate(768.7393,494.9517)">
          <path
             d="m 0,0 c 0,-0.902 -0.731,-1.635 -1.634,-1.635 -0.902,0 -1.634,0.733 -1.634,1.635 0,0.902 0.732,1.633 1.634,1.633 C -0.731,1.633 0,0.902 0,0"
             style="fill:#ffffff;fill-opacity:1;fill-rule:nonzero;stroke:none"
             id="path46" />
        </g>
        <g
           id="g48"
           transform="translate(763.8057,479.8618)">
          <path
             d="m 0,0 c 0,-0.902 -0.731,-1.634 -1.634,-1.634 -0.902,0 -1.635,0.732 -1.635,1.634 0,0.902 0.733,1.634 1.635,1.634 C -0.731,1.634 0,0.902 0,0"
             style="fill:#ffffff;fill-opacity:1;fill-rule:nonzero;stroke:none"
             id="path50" />
        </g>
      </g>
    </g>
  </g>
</svg>
